<?xml version="1.0" standalone="no"?><!DOCTYPE svg PUBLIC "-//W3C//DTD SVG 1.1//EN" "http://www.w3.org/Graphics/SVG/1.1/DTD/svg11.dtd"><svg t="1742805099333" class="icon" viewBox="0 0 1024 1024" version="1.1" xmlns="http://www.w3.org/2000/svg" p-id="4608" xmlns:xlink="http://www.w3.org/1999/xlink" width="200" height="200"><path d="M0 0m0 0l1024 0q0 0 0 0l0 1024q0 0 0 0l-1024 0q0 0 0 0l0-1024q0 0 0 0Z" fill="#E8EFF8" p-id="4609"></path><path d="M837.818182 232.727273a23.272727 23.272727 0 0 0-23.272727-23.272728h-93.09091a23.272727 23.272727 0 0 0-23.272727 23.272728v535.272727a23.272727 23.272727 0 0 0 23.272727 23.272727h93.09091a23.272727 23.272727 0 0 0 23.272727-23.272727V232.727273z" fill="#A0BFF7" p-id="4610"></path><path d="M162.909091 674.909091a23.272727 23.272727 0 0 1 23.272727-23.272727h302.545455a23.272727 23.272727 0 0 1 23.272727 23.272727v93.090909a23.272727 23.272727 0 0 1-23.272727 23.272727H186.181818a23.272727 23.272727 0 0 1-23.272727-23.272727v-93.090909z" fill="#247ADE" p-id="4611"></path><path d="M674.909091 232.727273a23.272727 23.272727 0 0 0-23.272727-23.272728h-93.090909a23.272727 23.272727 0 0 0-23.272728 23.272728v535.272727a23.272727 23.272727 0 0 0 23.272728 23.272727h93.090909a23.272727 23.272727 0 0 0 23.272727-23.272727V232.727273z" fill="#69CB91" p-id="4612"></path></svg>